<svg width="871" height="613" viewBox="0 0 871 613" fill="none" pixelAspectRatio="none" xmlns="http://www.w3.org/2000/svg">
<g clip-path="url(#clip0_128_1552)">
<path d="M529.37 343.669C530.856 343.669 532.281 344.28 533.332 345.366C534.382 346.453 534.972 347.927 534.972 349.463V405.512H642.427C643.913 405.512 645.338 406.123 646.388 407.209C647.439 408.296 648.029 409.77 648.029 411.306C648.029 412.843 647.439 414.317 646.388 415.403C645.338 416.49 643.913 417.1 642.427 417.1H534.972V610.932H523.769V349.463C523.769 347.927 524.359 346.453 525.409 345.366C526.46 344.28 527.885 343.669 529.37 343.669Z" fill="#383343"/>
<path d="M230.337 609.616L210.137 610.192C207.069 610.356 204.033 609.475 201.494 607.686C199.301 605.999 198.294 603.717 198.736 601.426L202.71 580.766C203.46 576.868 208.078 573.921 213.69 573.761L224.845 573.442C230.458 573.282 235.226 575.961 236.182 579.81L241.253 600.212C241.816 602.475 240.933 604.81 238.833 606.62C236.393 608.551 233.409 609.603 230.337 609.616Z" fill="#3F3D56"/>
<path d="M353.202 609.025L333.002 609.602C329.934 609.765 326.899 608.885 324.359 607.096C322.166 605.409 321.16 603.127 321.601 600.836L325.576 580.175C326.325 576.278 330.943 573.331 336.555 573.171L347.711 572.852C353.323 572.692 358.091 575.37 359.047 579.219L364.119 599.622C364.681 601.884 363.798 604.219 361.698 606.03C359.258 607.961 356.274 609.013 353.202 609.025Z" fill="#3F3D56"/>
<path d="M160.196 433.624C159.273 433.213 158.514 432.488 158.043 431.569C157.573 430.651 157.42 429.594 157.609 428.573C157.799 427.553 158.319 426.629 159.085 425.956C159.851 425.283 160.816 424.901 161.82 424.872L391.465 418.314C392.044 418.297 392.621 418.399 393.162 418.613C393.703 418.826 394.198 419.148 394.619 419.56C395.039 419.971 395.378 420.465 395.614 421.012C395.85 421.558 395.98 422.148 395.997 422.747V422.747C396.027 423.956 395.593 425.129 394.79 426.007C393.986 426.886 392.878 427.399 391.709 427.433L391.709 427.433L162.064 433.991C161.423 434.012 160.785 433.886 160.196 433.624Z" fill="#3F3D56"/>
<path d="M244.947 354.995L179.303 356.87L185.423 586.094L251.067 584.219L244.947 354.995Z" fill="#383343"/>
<path d="M246.612 350.876L233.993 386.429L234.004 548.404L249.38 552.964L246.612 350.876Z" fill="url(#paint0_linear_128_1552)"/>
<path d="M211.783 295.09C199.502 295.45 190.132 317.432 190.357 326.01L190.772 341.539L235.24 340.269L234.825 324.74C234.593 316.162 224.064 294.749 211.783 295.09Z" fill="#3F3D56"/>
<path d="M180.155 451.797C177.861 451.86 175.636 450.979 173.968 449.347C172.301 447.716 171.328 445.467 171.262 443.094L170.587 417.821C170.524 415.447 171.375 413.144 172.953 411.419C174.531 409.694 176.707 408.689 179.002 408.623C181.298 408.557 183.524 409.438 185.192 411.07C186.859 412.702 187.832 414.953 187.895 417.327L188.57 442.599C188.631 444.973 187.779 447.274 186.201 448.998C184.624 450.722 182.449 451.729 180.155 451.797Z" fill="#3F3D56"/>
<path d="M196.813 357.413L196.502 340.711L200.737 340.602L201.048 357.251L204.887 599.905L200.651 600.026" fill="#3F3D56"/>
<path d="M252.474 396.471L176.351 398.645C169.08 389.475 168.419 350.406 183.593 342.97L189.544 332.52L235.421 330.203L240.782 341.207C248.33 347.849 252.222 386.675 252.474 396.471Z" fill="#383343"/>
<path d="M223.822 377.733L204.572 378.283C200.857 378.389 197.699 373.405 197.533 367.173C197.366 360.942 200.254 355.784 203.969 355.678L223.219 355.129C226.934 355.023 230.092 360.007 230.258 366.238C230.425 372.47 227.537 377.627 223.822 377.733Z" fill="url(#paint1_linear_128_1552)"/>
<path d="M186.544 490.445L146.863 519.435L139.931 584.801L186.221 568.804L186.544 490.445Z" fill="#383343"/>
<path d="M371.662 352.188L306.019 354.062L312.139 583.287L377.782 581.412L371.662 352.188Z" fill="#383343"/>
<path d="M307.591 351.642L321.098 386.844L325.15 548.765L309.894 553.736L307.591 351.642Z" fill="url(#paint2_linear_128_1552)"/>
<path d="M337.217 292.319C324.936 292.68 315.566 314.661 315.792 323.239L316.206 338.768L360.674 337.499L360.26 321.969C360.027 313.392 349.498 291.978 337.217 292.319Z" fill="#3F3D56"/>
<path d="M349.932 362.641L349.622 345.939L353.857 345.83L354.167 362.479L358.006 605.133L353.77 605.254" fill="#3F3D56"/>
<path d="M377.908 393.7L301.785 395.874C300.458 387.577 302.175 348.857 309.027 340.199L314.978 329.749L360.855 327.433L366.217 338.436C379.762 339.577 384.5 377.627 377.908 393.7Z" fill="#383343"/>
<path d="M349.35 378.45L330.099 379C326.385 379.106 323.206 373.339 323.014 366.146C322.821 358.953 325.688 353.014 329.403 352.908L348.653 352.358C352.368 352.252 355.547 358.019 355.739 365.212C355.931 372.404 353.064 378.344 349.35 378.45Z" fill="url(#paint3_linear_128_1552)"/>
<path d="M374.905 473.689L413.266 504.521L417.306 570.147L371.771 551.981L374.905 473.689Z" fill="#383343"/>
<path d="M364.193 169.73C323.031 169.73 275.726 122.487 233.873 144.934C107.153 212.895 124.597 99.1726 88.1914 56.8784L89.3866 54.3989C116.947 163.132 141.885 336.395 234.424 142.05C257.605 93.3664 333.684 168.617 378.467 166.397L378.545 169.378C373.815 169.613 369.031 169.731 364.193 169.73Z" fill="#222027"/>
<path d="M462.987 176.415C430.174 202.119 364.887 193.999 344.626 238.027C283.282 371.334 230.802 269.786 177.091 258.805L176.596 256.082C230.364 260.694 288.038 253.538 343.381 235.384C393.395 218.981 438.017 194.579 472.42 164.845L474.222 167.172C470.59 170.313 466.845 173.394 462.987 176.415Z" fill="#222027"/>
<path d="M266.666 20.2159C254.386 20.5767 245.016 42.5584 245.241 51.1362L245.656 66.6655L290.124 65.3955L289.709 49.8662C289.476 41.2885 278.948 19.8752 266.666 20.2159Z" fill="#3F3D56"/>
<path d="M293.145 608.262L272.945 608.839C269.877 609.002 266.842 608.122 264.302 606.333C262.109 604.645 261.102 602.364 261.544 600.073L265.519 579.412C266.268 575.514 270.886 572.568 276.498 572.407L287.654 572.089C293.266 571.929 298.034 574.607 298.99 578.456L304.062 598.858C304.624 601.121 303.741 603.456 301.641 605.266C299.201 607.198 296.217 608.25 293.145 608.262Z" fill="#3F3D56"/>
<path d="M302.153 119.076L236.509 120.951L248.88 584.301L314.523 582.427L302.153 119.076Z" fill="#383343"/>
<path d="M275.886 343.366L275.576 326.663L279.811 326.555L280.121 343.203L283.96 585.858L279.724 585.979" fill="#3F3D56"/>
<path d="M315.076 161.482L226.133 164.023C224.582 154.327 226.588 109.086 234.595 98.9708L236.789 86.8963L298.203 85.1423L301.416 96.9103C310.235 104.672 314.783 150.036 315.076 161.482Z" fill="#383343"/>
<path d="M300.144 86.5672L236.769 88.3772C234.43 88.444 232.498 87.1737 232.455 85.5399C232.449 85.3046 232.482 85.0699 232.553 84.8462L242.397 53.4801C242.819 52.1369 244.497 51.1505 246.455 51.0946L288.484 49.8943C290.443 49.8384 292.171 50.7275 292.663 52.0446L304.166 82.8011C304.754 84.3742 303.395 86.0111 301.131 86.4574C300.805 86.5212 300.476 86.5579 300.144 86.5672Z" fill="#383343"/>
<path d="M243.021 341.235C242.449 340.982 241.908 340.658 241.411 340.271C240.698 339.754 240.109 339.075 239.689 338.285C239.269 337.496 239.029 336.618 238.987 335.719L236.685 249.466C236.59 245.896 239.97 242.892 244.219 242.77L300.954 241.15C305.205 241.028 308.739 243.835 308.835 247.405L311.138 333.658C311.144 334.559 310.952 335.449 310.575 336.261C310.197 337.073 309.645 337.785 308.961 338.342C307.445 339.619 305.557 340.328 303.602 340.354L246.868 341.974C245.549 342.019 244.236 341.767 243.021 341.235Z" fill="#3F3D56"/>
<path d="M279.334 81.0162L260.083 81.566C256.369 81.6721 253.228 77.3313 253.082 71.8911C252.937 66.4508 255.842 61.9373 259.557 61.8312L278.807 61.2814C282.521 61.1754 285.663 65.5161 285.808 70.9564C285.953 76.3967 283.048 80.9101 279.334 81.0162Z" fill="url(#paint4_linear_128_1552)"/>
<path d="M734.367 592.586H711.959V424.166C730.702 422.776 744.789 416.84 744.789 409.726C744.789 401.581 726.32 394.978 703.538 394.978C680.756 394.978 662.288 401.581 662.288 409.726C662.288 416.908 676.649 422.888 695.662 424.203V592.586H673.255C671.094 592.586 669.021 593.474 667.493 595.054C665.965 596.635 665.107 598.778 665.107 601.013C665.107 603.249 665.965 605.392 667.493 606.973C669.021 608.553 671.094 609.441 673.255 609.441H734.367C736.528 609.441 738.6 608.553 740.128 606.973C741.656 605.392 742.515 603.249 742.515 601.013C742.515 598.778 741.656 596.635 740.128 595.054C738.6 593.474 736.528 592.586 734.367 592.586Z" fill="#383343"/>
<path d="M689.387 507.084L682.026 515.38L647.585 489.965L658.448 477.72L689.387 507.084Z" fill="#A0616A"/>
<path d="M670.566 528.98C670.638 530.835 671.066 532.657 671.824 534.34C672.582 536.023 673.655 537.533 674.982 538.784L675.306 539.096L684.959 528.216L699.036 512.347L688.644 502.48L686.768 504.6L686.572 504.818L677.22 509.393L675.238 510.367L674.899 510.531L674.153 518.816V518.824C672.934 520.186 671.989 521.785 671.373 523.529C670.757 525.272 670.483 527.125 670.566 528.98Z" fill="#3B3549"/>
<path d="M727.521 589.843L717.104 593.116L699.942 553.119L715.316 548.289L727.521 589.843Z" fill="#A0616A"/>
<path d="M699.526 609.561L699.654 610.006L733.24 599.453L729.141 585.494L726.488 586.328L726.21 586.413L713.723 585.229L713.354 585.198L708.629 591.939C705.162 593.028 702.256 595.496 700.549 598.801C698.842 602.105 698.474 605.976 699.526 609.561H699.526Z" fill="#3B3549"/>
<path d="M641.628 380.424C641.628 380.424 575.124 446.835 617.167 467.391H630.161C632.986 457.895 637.328 448.955 643.006 440.942C644.234 439.28 648.833 439.618 650.111 437.998C657.91 428.11 666.365 419.618 672.204 419.955L670.807 465.84L668.546 482.208C667.359 490.669 700.861 564.546 700.861 564.546L721.918 555.986C721.918 555.986 699.979 495.138 699.722 486.366L717.304 389.911L641.628 380.424Z" fill="#3B3549"/>
<path d="M636.082 383.7C636.421 384.2 636.864 384.615 637.378 384.916C638.226 385.411 639.144 385.764 640.099 385.96C655.072 389.475 703.987 396.762 716.684 393.286C718.244 392.865 719.262 392.273 719.593 391.494C720.656 389.031 720.52 378.626 719.895 366.062C719.782 363.708 717.272 361.16 717.122 358.697C717.016 356.849 719.269 355.111 719.149 353.233C718.32 340.529 717.25 327.583 716.534 319.399C716.082 314.138 715.773 310.849 715.773 310.849L723.497 260.477L723.135 259.861L722.728 259.651L697.823 246.9L696.466 243.315C696.073 242.282 695.39 241.396 694.505 240.769C693.619 240.142 692.573 239.805 691.5 239.799L675.095 239.729C674.244 239.724 673.404 239.93 672.645 240.328C671.886 240.727 671.23 241.307 670.732 242.021L666.286 248.388L636.896 267.873L637.009 268.232L650.8 311.637L650.867 315.019V315.027L651.38 342.228L649.956 345.914L651.561 351.963C651.561 351.963 650.822 359.032 646.866 364.285C643.279 369.055 638.712 374.027 636.648 378.065V378.072C635.502 380.302 635.118 382.234 636.082 383.7Z" fill="url(#paint5_linear_128_1552)"/>
<path d="M613.974 463.446L617.528 468.092C617.528 468.092 650.221 491.748 651.343 493.958L656.51 499.015L669.011 485.194L662.51 476.766C657.307 470.021 650.586 464.699 642.933 461.264L632.969 452.121L613.974 463.446Z" fill="#3B3549"/>
<path d="M731.735 399.39L725.782 339.789L724.21 315.259L740.874 312.143C740.874 312.143 740.213 329.682 742.396 339.578C744.551 349.343 742.682 398.081 742.549 399.384C743.773 400.516 744.635 402.005 745.023 403.655C745.411 405.305 745.305 407.038 744.719 408.624C744.134 410.211 743.097 411.576 741.745 412.539C740.393 413.503 738.79 414.019 737.149 414.02C735.507 414.021 733.904 413.506 732.551 412.544C731.198 411.582 730.16 410.218 729.573 408.632C728.986 407.046 728.879 405.313 729.265 403.663C729.651 402.013 730.512 400.522 731.735 399.389V399.39Z" fill="#A0616A"/>
<path d="M711.892 309.127L716.534 319.399L718.154 322.977L722.517 346.608L724.695 349.001L726.571 356.725L727.453 356.538L743.353 353.132L747.988 352.142C749.032 350.342 749.444 348.224 749.153 346.146C748.862 344.069 747.886 342.159 746.39 340.739C746.074 340.443 745.81 340.155 745.817 339.882C746.081 323.444 745.109 293.43 736.33 281.076C733.542 277.156 731.869 273.251 729.435 270.523C729.427 270.515 729.427 270.508 729.42 270.508L723.497 260.477L723.135 259.861L722.728 259.651L711.892 309.127Z" fill="url(#paint6_linear_128_1552)"/>
<path d="M684.58 235.507C696.635 235.507 706.408 225.4 706.408 212.931C706.408 200.463 696.635 190.356 684.58 190.356C672.525 190.356 662.753 200.463 662.753 212.931C662.753 225.4 672.525 235.507 684.58 235.507Z" fill="#A0616A"/>
<path d="M710.499 208.074C711.139 204.28 711.637 199.362 709.805 194.99C708.258 191.31 704.387 187.861 700.084 188.326C700.288 187.495 700.265 186.623 700.018 185.805C699.771 184.986 699.31 184.255 698.686 183.692C697.284 182.554 695.652 181.76 693.911 181.37C689.866 180.14 685.676 178.866 681.351 178.842C676.496 178.815 672.194 180.535 669.556 183.568L669.491 183.666L668.7 185.619C668.595 185.881 668.435 186.116 668.233 186.308C668.031 186.5 667.792 186.645 667.531 186.733C667.269 186.822 666.991 186.85 666.718 186.816C666.444 186.781 666.181 186.684 665.948 186.532C665.692 186.369 665.4 186.279 665.1 186.268C664.799 186.258 664.502 186.33 664.236 186.475C663.971 186.62 663.747 186.835 663.586 187.097C663.425 187.359 663.333 187.661 663.32 187.971L663.278 188.804L662.145 188.337C661.861 188.219 661.551 188.18 661.248 188.227C660.945 188.273 660.66 188.402 660.421 188.601C660.182 188.8 659.999 189.061 659.891 189.357C659.782 189.653 659.752 189.974 659.804 190.287L659.954 191.278C659.711 191.232 659.461 191.238 659.219 191.294C658.978 191.35 658.75 191.456 658.549 191.606C658.261 191.824 658.048 192.132 657.94 192.484C657.832 192.836 657.835 193.215 657.949 193.565C658.828 196.158 660.329 198.478 662.312 200.306C663.202 201.138 664.199 201.839 665.274 202.39C665.498 202.506 665.73 202.617 665.972 202.721C674.67 206.578 683.978 208.759 693.435 209.155C692.54 210.919 691.962 212.837 691.729 214.814C691.6 215.936 691.77 217.074 692.222 218.103C692.673 219.132 693.388 220.013 694.29 220.652C694.681 220.883 695.091 221.077 695.516 221.233C695.922 221.388 696.315 221.576 696.692 221.796C697.244 222.141 697.699 222.632 698.009 223.217C698.319 223.802 698.475 224.462 698.459 225.129C698.444 225.797 698.258 226.448 697.922 227.018C697.585 227.587 697.108 228.054 696.541 228.372C696.541 228.372 698.165 230.424 698.425 230.389C699.46 230.146 700.395 229.574 701.099 228.753C705.826 224.005 708.989 217.052 710.499 208.074Z" fill="#3B3549"/>
<path d="M806.06 557.048L807.009 534.986C816.898 529.518 827.929 526.63 839.143 526.573C823.709 539.623 825.638 564.78 815.174 582.33C811.87 587.777 807.423 592.386 802.163 595.815C796.903 599.243 790.964 601.404 784.786 602.136L771.871 610.314C770.099 600.096 770.49 589.602 773.016 579.555C775.543 569.508 780.146 560.147 786.507 552.116C790.119 547.648 794.261 543.668 798.834 540.27C801.928 548.706 806.06 557.048 806.06 557.048Z" fill="#222027"/>
<path d="M871 611.364C871.001 611.579 870.96 611.792 870.881 611.991C870.802 612.189 870.685 612.37 870.538 612.522C870.391 612.674 870.216 612.795 870.024 612.877C869.832 612.959 869.626 613.001 869.418 613H1.582C1.16243 613 0.760036 612.828 0.463354 612.521C0.166672 612.214 0 611.798 0 611.364C0 610.93 0.166672 610.514 0.463354 610.207C0.760036 609.9 1.16243 609.728 1.582 609.728H869.418C869.626 609.727 869.832 609.769 870.024 609.851C870.216 609.933 870.391 610.053 870.538 610.205C870.685 610.357 870.802 610.538 870.881 610.737C870.96 610.936 871.001 611.149 871 611.364Z" fill="#357FB5"/>
<path d="M373.288 446.198C370.994 446.261 368.769 445.38 367.101 443.749C365.434 442.117 364.461 439.868 364.395 437.495L363.72 412.222C363.66 409.85 364.512 407.55 366.09 405.828C367.668 404.105 369.842 403.101 372.136 403.036C374.429 402.97 376.654 403.849 378.321 405.479C379.988 407.108 380.962 409.356 381.028 411.728L381.703 437.001C381.764 439.374 380.912 441.675 379.334 443.399C377.757 445.124 375.582 446.13 373.288 446.198Z" fill="#3F3D56"/>
<path d="M755.089 538.566C741.938 538.566 727.523 538.052 711.846 537.024C630.757 531.698 525.723 513.181 416.09 484.887C306.459 456.592 205.326 421.898 131.325 387.197C95.2769 370.293 67.6101 354.292 49.0941 339.638C29.4904 324.124 20.9155 310.601 23.6065 299.446C28.8499 277.715 75.2774 272.961 113.302 272.799L113.315 275.959C61.0971 276.181 30.2911 284.794 26.5716 300.211C21.8336 319.848 60.4749 350.503 132.587 384.319C206.426 418.943 307.372 453.571 416.83 481.821C526.289 510.071 631.13 528.555 712.04 533.869C791.056 539.061 839.094 530.775 843.832 511.138C847.765 494.835 821.834 470.818 770.814 443.51L772.219 440.703C809.29 460.546 852.321 489.005 846.797 511.904C844.105 523.058 830.393 530.829 806.041 534.998C792.159 537.374 775.108 538.566 755.089 538.566Z" fill="#357FB5"/>
<path d="M57.0972 517.863C46.6613 517.863 39.8768 515.181 36.8739 509.849C30.9522 499.335 40.8699 480.886 66.351 455.017L68.4915 457.272C44.8222 481.303 34.531 499.41 39.5137 508.258C42.6668 513.855 52.0503 515.861 66.6559 514.056C81.1549 512.266 100.37 506.93 123.766 498.197C171.934 480.218 232.364 449.89 293.927 412.801C355.487 375.713 410.803 336.305 449.687 301.838C457.155 295.216 463.933 288.846 469.832 282.906C477.576 275.299 484.72 267.064 491.197 258.28C499.918 246.031 502.862 236.599 499.709 231.001C494.444 221.653 472.323 222.532 437.42 233.48L436.534 230.456C473.981 218.711 496.125 218.359 502.35 229.411C506.217 236.278 503.293 246.621 493.657 260.154C487.082 269.077 479.828 277.443 471.964 285.17C466.019 291.157 459.193 297.572 451.675 304.237C412.656 338.825 357.179 378.35 295.464 415.531C233.748 452.714 173.139 483.128 124.804 501.17C101.189 509.984 81.7473 515.376 67.018 517.194C63.7267 517.619 60.414 517.842 57.0972 517.863Z" fill="#357FB5"/>
<path d="M614.784 388.109C607.233 387.953 566.669 386.749 560.018 387.045C559.641 385.683 547.032 402.396 546.725 402.5C546.521 402.723 546.371 402.994 546.29 403.29C546.209 403.585 546.198 403.897 546.259 404.198C546.319 404.499 546.449 404.78 546.638 405.018C546.826 405.255 547.067 405.442 547.341 405.563C548.082 406.029 613.476 404.777 614.268 404.941C614.611 404.935 614.945 404.829 615.232 404.636C615.519 404.442 615.748 404.169 615.891 403.847L616.328 402.834C616.374 401.102 616.922 392.249 616.43 390.736C616.551 390.452 616.601 390.141 616.577 389.832C616.553 389.522 616.455 389.224 616.292 388.963C616.129 388.703 615.906 388.488 615.642 388.339C615.379 388.19 615.084 388.111 614.784 388.109Z" fill="#383343"/>
<path opacity="0.17" d="M616.328 402.833C615.944 403.787 615.453 404.985 614.268 404.941L548.031 405.71C547.718 405.706 547.411 405.619 547.14 405.458C546.868 405.296 546.642 405.064 546.481 404.786C546.321 404.507 546.233 404.191 546.225 403.867C546.218 403.543 546.291 403.223 546.437 402.936L616.328 402.833Z" fill="#0075FF"/>
<path d="M560.327 386.84C559.614 385.565 541.906 294.94 540.428 294.182L528.338 278.885L527.257 278.045C525.755 277.191 522.15 277.768 522.475 280.142C525.315 294.227 543.584 374.444 543.985 386.95L546.184 402.883C546.223 403.154 546.317 403.413 546.459 403.645C546.601 403.876 546.788 404.074 547.009 404.226C547.23 404.378 547.479 404.48 547.74 404.526C548.001 404.573 548.269 404.562 548.526 404.494C549.156 404.424 549.758 404.185 550.272 403.801C550.786 403.417 551.194 402.901 551.457 402.304C551.622 401.742 561.155 387.166 560.327 386.84Z" fill="#383343"/>
<path opacity="0.17" d="M528.335 278.886L551.459 402.307C550.686 404.332 547.067 405.75 546.224 403.094C546.21 403.091 522.502 280.218 522.478 280.145C522.225 277.188 526.949 277.094 528.335 278.886Z" fill="#0075FF"/>
<path d="M529.032 283.933L540.776 300.864L553.957 365.613L547.83 371.141L529.032 283.933Z" fill="url(#paint7_linear_128_1552)"/>
<path d="M607.204 396.839L610.453 396.976C610.503 395.992 610.661 395.017 610.921 394.069C611.41 391.667 611.848 388.812 609.821 388.823C608.446 388.686 607.978 390.487 607.733 392.446C607.67 393.923 607.493 395.392 607.204 396.839Z" fill="#3B3549"/>
<path d="M588.565 392.32L590.754 392.404L591.814 392.446C591.793 391.246 592.333 388.77 591.019 388.159C590.81 388.066 590.585 388.019 590.357 388.022C589.125 387.948 588.758 388.917 588.646 390.034C588.575 390.708 588.605 391.425 588.585 391.983C588.585 392.099 588.575 392.215 588.565 392.32Z" fill="#3B3549"/>
<path d="M582.077 392.046L584.277 392.141L585.326 392.183C585.305 390.803 586.008 387.79 583.869 387.748C581.893 387.632 582.148 390.234 582.097 391.709C582.097 391.825 582.087 391.941 582.077 392.046Z" fill="#3B3549"/>
<path d="M575.589 391.783L577.778 391.867L578.838 391.909C578.817 390.54 579.52 387.527 577.381 387.485C575.405 387.358 575.66 389.96 575.609 391.446C575.609 391.561 575.599 391.677 575.589 391.783Z" fill="#3B3549"/>
<path d="M569.101 391.509L571.301 391.604L572.35 391.646C572.329 390.266 573.032 387.263 570.893 387.211C568.917 387.095 569.172 389.697 569.121 391.172C569.121 391.288 569.111 391.403 569.101 391.509Z" fill="#3B3549"/>
<path d="M562.613 391.245L564.802 391.33L565.862 391.372C565.841 390.108 566.432 387.464 564.863 387.011H564.853C564.708 386.966 564.557 386.945 564.405 386.947C564.22 386.93 564.034 386.948 563.855 387H563.845C562.48 387.369 562.674 389.581 562.633 390.908C562.633 391.024 562.623 391.14 562.613 391.245Z" fill="#3B3549"/>
<path d="M600.655 390.529L603.904 390.666C603.904 390.54 603.904 390.403 603.914 390.245C603.994 389.443 604.008 388.636 603.955 387.832C603.843 386.947 603.476 386.252 602.447 386.231C601.398 386.168 600.98 386.863 600.817 387.759C600.78 387.911 600.752 388.066 600.736 388.222V388.233C600.654 389.054 600.705 389.939 600.655 390.529Z" fill="#3B3549"/>
<path d="M594.167 390.255L597.416 390.392C597.485 389.488 597.505 388.581 597.477 387.674C597.385 386.747 597.029 385.989 595.959 385.968C594.879 385.894 594.462 386.653 594.299 387.59C594.146 388.496 594.228 389.581 594.167 390.255Z" fill="#3B3549"/>
<path d="M587.679 389.992L588.646 390.034L590.928 390.129C590.918 389.623 591.009 388.886 591.019 388.159C591.028 387.941 591.021 387.723 590.999 387.506C590.918 386.526 590.581 385.715 589.471 385.694C588.341 385.631 587.943 386.442 587.801 387.432C587.658 388.317 587.74 389.339 587.679 389.992Z" fill="#3B3549"/>
<path d="M600.716 396.576L603.965 396.702C603.955 395.333 604.647 392.32 602.508 392.278C600.369 392.141 600.838 395.196 600.716 396.576Z" fill="#3B3549"/>
<path d="M594.228 396.302L597.477 396.439C597.467 395.059 598.159 392.046 596.02 392.004C593.881 391.877 594.35 394.932 594.228 396.302Z" fill="#3B3549"/>
<path d="M587.74 396.038L590.989 396.165C590.979 395.185 591.335 393.373 590.755 392.404C590.628 392.189 590.447 392.014 590.232 391.898C590.017 391.781 589.775 391.726 589.532 391.74C589.199 391.704 588.864 391.79 588.585 391.983C587.546 392.689 587.842 394.922 587.74 396.038Z" fill="#3B3549"/>
<path d="M581.252 395.765L584.501 395.902C584.491 394.922 584.837 393.121 584.277 392.141C584.15 391.923 583.969 391.745 583.751 391.626C583.534 391.507 583.29 391.452 583.044 391.467C582.711 391.429 582.375 391.515 582.097 391.709C581.058 392.436 581.354 394.659 581.252 395.765Z" fill="#3B3549"/>
<path d="M574.764 395.501L578.013 395.628C578.003 394.648 578.359 392.836 577.778 391.867C577.652 391.652 577.471 391.477 577.256 391.36C577.041 391.244 576.799 391.189 576.556 391.203C576.223 391.167 575.888 391.253 575.609 391.446C574.57 392.151 574.866 394.385 574.764 395.501Z" fill="#3B3549"/>
<path d="M568.276 395.227L571.525 395.364C571.515 394.385 571.861 392.583 571.301 391.604C571.175 391.385 570.994 391.206 570.776 391.087C570.559 390.968 570.314 390.914 570.068 390.929C569.735 390.891 569.399 390.977 569.121 391.172C568.082 391.899 568.378 394.121 568.276 395.227Z" fill="#3B3549"/>
<path d="M561.788 394.964L565.037 395.09C565.026 394.111 565.373 392.309 564.802 391.33C564.677 391.114 564.496 390.938 564.281 390.821C564.065 390.704 563.823 390.651 563.58 390.666C563.247 390.629 562.911 390.715 562.633 390.908C561.594 391.625 561.889 393.847 561.788 394.964Z" fill="#3B3549"/>
<path d="M598.481 385.226L623.245 331.058L632.608 308.462L617.892 299.796C617.892 299.796 612.88 316.566 607.642 325.149C602.473 333.619 588.577 380.23 588.283 381.504C586.766 382.151 585.473 383.26 584.578 384.683C583.682 386.106 583.225 387.776 583.268 389.474C583.31 391.171 583.85 392.815 584.815 394.188C585.781 395.562 587.127 396.599 588.675 397.164C590.223 397.729 591.9 397.795 593.485 397.352C595.07 396.91 596.488 395.98 597.551 394.686C598.614 393.392 599.272 391.795 599.438 390.106C599.604 388.416 599.271 386.715 598.481 385.226H598.481Z" fill="#A0616A"/>
<path d="M598.33 335.075L617.059 346.76L621.306 340.121L624.135 338.612L635.842 317.82L646.193 306.913L659.869 261.7L642.075 264.461L642.052 264.469C638.882 266.208 636.046 269.317 632.159 272.057C619.91 280.69 609.349 308.666 604.317 324.264C604.235 324.52 603.896 324.698 603.502 324.872C601.636 325.697 600.103 327.163 599.161 329.021C598.218 330.88 597.925 333.018 598.33 335.075L598.33 335.075Z" fill="url(#paint8_linear_128_1552)"/>
</g>
<defs>
<linearGradient id="paint0_linear_128_1552" x1="241.687" y1="350.876" x2="241.687" y2="552.964" gradientUnits="userSpaceOnUse">
<stop stop-color="#00FFEC"/>
<stop offset="1" stop-color="#0094FF"/>
</linearGradient>
<linearGradient id="paint1_linear_128_1552" x1="213.895" y1="355.127" x2="213.895" y2="378.285" gradientUnits="userSpaceOnUse">
<stop stop-color="#00FFEC"/>
<stop offset="1" stop-color="#0094FF"/>
</linearGradient>
<linearGradient id="paint2_linear_128_1552" x1="316.371" y1="351.642" x2="316.371" y2="553.736" gradientUnits="userSpaceOnUse">
<stop stop-color="#00FFEC"/>
<stop offset="1" stop-color="#0094FF"/>
</linearGradient>
<linearGradient id="paint3_linear_128_1552" x1="339.376" y1="352.356" x2="339.376" y2="379.001" gradientUnits="userSpaceOnUse">
<stop stop-color="#00FFEC"/>
<stop offset="1" stop-color="#0094FF"/>
</linearGradient>
<linearGradient id="paint4_linear_128_1552" x1="269.445" y1="61.2795" x2="269.445" y2="81.5679" gradientUnits="userSpaceOnUse">
<stop stop-color="#00FFEC"/>
<stop offset="1" stop-color="#0094FF"/>
</linearGradient>
<linearGradient id="paint5_linear_128_1552" x1="679.516" y1="239.729" x2="679.516" y2="394.202" gradientUnits="userSpaceOnUse">
<stop stop-color="#00FFEC"/>
<stop offset="1" stop-color="#0094FF"/>
</linearGradient>
<linearGradient id="paint6_linear_128_1552" x1="730.568" y1="259.651" x2="730.568" y2="356.725" gradientUnits="userSpaceOnUse">
<stop stop-color="#00FFEC"/>
<stop offset="1" stop-color="#0094FF"/>
</linearGradient>
<linearGradient id="paint7_linear_128_1552" x1="541.495" y1="283.933" x2="541.495" y2="371.141" gradientUnits="userSpaceOnUse">
<stop stop-color="#00FFEC"/>
<stop offset="1" stop-color="#0093FF"/>
</linearGradient>
<linearGradient id="paint8_linear_128_1552" x1="629.011" y1="261.7" x2="629.011" y2="346.76" gradientUnits="userSpaceOnUse">
<stop stop-color="#00FFEC"/>
<stop offset="1" stop-color="#0094FF"/>
</linearGradient>
<clipPath id="clip0_128_1552">
<rect width="871" height="613" fill="white"/>
</clipPath>
</defs>
</svg>
