<svg width="780" height="511" viewBox="0 0 780 511" fill="none" pixelAspectRatio="none" xmlns="http://www.w3.org/2000/svg">
<g clip-path="url(#clip0_128_1425)">
<path d="M385.99 86.8705C399.058 86.8705 409.652 76.2702 409.652 63.194C409.652 50.1179 399.058 39.5176 385.99 39.5176C372.922 39.5176 362.328 50.1179 362.328 63.194C362.328 76.2702 372.922 86.8705 385.99 86.8705Z" fill="#9F9F9F"/>
<path d="M438.948 51.9829C438.28 49.7935 436.988 47.8471 435.229 46.3835C433.47 44.9198 431.322 44.0027 429.049 43.7452C428.996 43.7407 428.942 43.7407 428.889 43.7452C428.825 43.7252 428.76 43.7104 428.694 43.7008C420.772 42.6722 411.963 45.1728 406.034 50.6173C403.833 52.6066 402.073 55.0352 400.867 57.7467C399.768 56.2446 398.32 55.0332 396.648 54.2174C394.975 53.4016 393.129 53.006 391.27 53.0647C388.872 53.2234 386.581 54.1182 384.709 55.6274C382.838 57.1365 381.477 59.1864 380.813 61.4976C380.74 61.7799 380.76 62.0783 380.87 62.3484C380.98 62.6184 381.174 62.8456 381.424 62.9961C382.137 63.6061 382.984 64.0377 383.897 64.2553C385.855 64.6721 387.831 65.0534 389.808 65.3992C393.672 66.0731 397.556 66.6199 401.461 67.0396C404.04 67.3145 406.625 67.5333 409.215 67.6958C414.568 68.0328 419.947 68.1126 425.309 67.9441C427.968 67.8554 430.52 67.7668 432.948 66.5963C434.717 65.7256 436.229 64.4083 437.335 62.7745C438.375 61.2029 439.059 59.4222 439.338 57.5577C439.616 55.6933 439.483 53.7903 438.948 51.9829Z" fill="#322E3D"/>
<path d="M390.268 86.4767C390.224 85.4846 390.057 84.5019 389.772 83.5505C389.102 81.3613 387.807 79.4156 386.047 77.9522C384.287 76.4888 382.138 75.5715 379.864 75.3128C379.814 75.3083 379.764 75.3083 379.714 75.3128C379.647 75.2937 379.579 75.2789 379.51 75.2684C375.125 74.731 370.676 75.1886 366.492 76.6074C360.058 78.7622 354.413 83.1071 351.692 89.3143C350.592 87.8112 349.142 86.5993 347.468 85.7835C345.794 84.9676 343.947 84.5725 342.086 84.6323C339.687 84.791 337.396 85.6858 335.525 87.1949C333.654 88.7041 332.293 90.754 331.628 93.0652C331.56 93.3476 331.582 93.6445 331.691 93.9137C331.801 94.1828 331.993 94.4103 332.24 94.5637C332.954 95.172 333.801 95.6034 334.712 95.8229C336.68 96.2397 338.647 96.621 340.632 96.9668C344.496 97.6407 348.378 98.1875 352.277 98.6073C360.199 99.4582 368.17 99.7604 376.134 99.5117C378.783 99.423 381.344 99.3343 383.773 98.1639C385.539 97.2929 387.048 95.9755 388.15 94.342C389.704 92.0257 390.449 89.2605 390.268 86.4767Z" fill="#322E3D"/>
<path d="M698.445 373.769C698.785 389.912 696.558 406.007 691.849 421.451C691.684 422.012 691.486 422.573 691.288 423.134H594.2C595.588 416.295 597.792 409.648 600.763 403.335C608.843 386.176 622.034 371.492 635.061 356.907C653.001 336.811 670.512 316.88 673.282 290.746C680.394 301.593 686.069 313.317 690.167 325.625C685.15 327.484 680.545 330.309 676.613 333.94C675.525 334.963 674.371 336.448 674.931 337.867C675.459 339.055 676.91 339.451 678.196 339.715C681.296 340.309 684.396 340.902 687.496 341.464C689.936 341.958 692.41 342.42 694.883 342.882C697.057 353.04 698.25 363.383 698.445 373.769Z" fill="#322E3D"/>
<path d="M780 363.077C764.434 372.548 754.541 387.199 746.461 403.599C739.43 405.202 732.939 408.615 727.631 413.498C726.509 414.521 725.355 416.006 725.949 417.425C726.443 418.613 727.927 419.009 729.213 419.273C732.28 419.867 735.413 420.461 738.48 421.022C738.184 421.715 737.887 422.441 737.59 423.134H634.698C639.369 416.831 644.541 410.916 650.165 405.447C651.385 404.226 652.638 403.071 653.924 401.883C667.04 390.022 682.101 380.512 698.445 373.769C724.193 362.998 752.349 359.307 780 363.077Z" fill="#322E3D"/>
<path d="M651.847 423.134H560.233C559.733 415.793 559.777 408.425 560.365 401.091C564.026 355.785 588.66 312.623 625.827 286.489C621.078 303.417 623.518 320.246 628.465 337.141C627.773 337.372 627.08 337.57 626.453 337.834C621.436 339.693 616.831 342.518 612.899 346.149C611.811 347.172 610.657 348.657 611.217 350.076C611.712 351.264 613.196 351.66 614.482 351.924C617.582 352.518 620.682 353.112 623.749 353.673C626.222 354.168 628.696 354.63 631.169 355.125C632.323 355.323 633.478 355.554 634.632 355.785C634.797 356.181 634.896 356.544 635.061 356.907C640.865 372.911 647.197 389.047 650.165 405.447C650.899 409.562 651.406 413.715 651.682 417.887C651.781 419.636 651.847 421.385 651.847 423.134Z" fill="#322E3D"/>
<path d="M152.544 373.769C152.884 389.912 150.658 406.007 145.949 421.451C145.783 422.012 145.586 422.573 145.388 423.134H48.2998C49.6877 416.295 51.8911 409.648 54.8626 403.335C62.9422 386.176 76.1335 371.492 89.1599 356.907C107.1 336.811 124.612 316.88 127.382 290.746C134.493 301.593 140.168 313.317 144.267 325.625C139.249 327.484 134.645 330.309 130.713 333.94C129.624 334.963 128.47 336.448 129.031 337.867C129.558 339.055 131.009 339.451 132.295 339.715C135.395 340.309 138.495 340.902 141.595 341.464C144.036 341.958 146.509 342.42 148.982 342.882C151.156 353.04 152.349 363.383 152.544 373.769Z" fill="#322E3D"/>
<path d="M234.099 363.077C218.534 372.548 208.64 387.199 200.561 403.599C193.53 405.202 187.039 408.615 181.73 413.498C180.609 414.521 179.454 416.006 180.048 417.425C180.543 418.613 182.027 419.009 183.313 419.273C186.38 419.867 189.513 420.461 192.58 421.022C192.283 421.715 191.986 422.441 191.69 423.134H88.7974C93.4682 416.831 98.6406 410.916 104.264 405.447C105.484 404.226 106.738 403.071 108.024 401.883C121.14 390.022 136.2 380.512 152.544 373.769C178.292 362.998 206.448 359.307 234.099 363.077Z" fill="#322E3D"/>
<path d="M105.946 423.134H14.3324C13.8321 415.793 13.8762 408.425 14.4644 401.091C18.125 355.785 42.7596 312.623 79.9262 286.489C75.1773 303.417 77.6176 320.246 82.5644 337.141C81.872 337.372 81.1794 337.57 80.5528 337.834C75.5355 339.693 70.9308 342.518 66.9987 346.149C65.9104 347.172 64.7562 348.657 65.3168 350.076C65.8114 351.264 67.2954 351.66 68.5816 351.924C71.6815 352.518 74.7815 353.112 77.8485 353.673C80.3219 354.168 82.7952 354.63 85.2686 355.125C86.4227 355.323 87.5771 355.554 88.7312 355.785C88.8961 356.181 88.9951 356.544 89.16 356.907C94.9642 372.911 101.296 389.047 104.264 405.447C104.999 409.562 105.505 413.715 105.781 417.887C105.88 419.636 105.946 421.385 105.946 423.134Z" fill="#322E3D"/>
<path d="M447.009 384.647L528.868 391.919L529.745 391.998V42.5013C529.453 42.2973 529.16 42.0934 528.868 41.8894C511.808 29.9493 493.353 20.1402 473.914 12.6804L469.732 70.4068L469.35 75.6917L465.212 132.939L463.936 150.55L447.16 382.608L447.009 384.647Z" fill="#322E3D"/>
<path d="M244.574 35.9926C243.989 36.365 243.404 36.7374 242.819 37.1276V391.998L244.574 391.839L325.546 384.647L325.396 382.608L308.62 150.55L307.344 132.939L303.205 75.6916L302.824 70.4067L298.437 9.86938C279.52 16.4306 261.441 25.1988 244.574 35.9926Z" fill="#322E3D"/>
<path d="M242.819 37.1274C241.641 37.89 240.462 38.6704 239.301 39.4596V396.84C239.301 405.769 244.592 413.253 251.664 415.16C252.819 415.473 254.011 415.631 255.209 415.63H518.233C519.428 415.631 520.617 415.473 521.769 415.16C524.398 414.43 526.781 413.002 528.664 411.028C532.256 407.186 534.219 402.1 534.141 396.84V45.6756C532.687 44.6026 531.225 43.5385 529.745 42.5011C529.453 42.2971 529.16 42.0932 528.868 41.8892V396.84C528.87 397.99 528.733 399.136 528.46 400.254C527.211 405.53 523.09 409.396 518.233 409.396H255.209C249.342 409.396 244.574 403.765 244.574 396.84V35.9924C243.989 36.3649 243.404 36.7373 242.819 37.1274Z" fill="#322E3D"/>
<path d="M531.504 70.4102H241.936V75.6942H531.504V70.4102Z" fill="#322E3D"/>
<path d="M442.818 3.00592C441.063 2.57142 439.308 2.16352 437.536 1.78223V145.265H442.818V3.00592Z" fill="#322E3D"/>
<path d="M335.906 0C334.143 0.328091 332.379 0.665054 330.625 1.02861V145.265H335.906V0Z" fill="#322E3D"/>
<path d="M185.163 406.381C185.162 409.413 185.742 412.418 186.873 415.231C187.308 416.322 187.826 417.377 188.424 418.388C189.197 419.705 190.093 420.947 191.101 422.094C193.327 424.633 196.069 426.667 199.144 428.06C202.219 429.453 205.556 430.173 208.931 430.172H555.711C562.015 430.172 568.06 427.667 572.517 423.207C576.975 418.747 579.479 412.698 579.479 406.39C579.479 400.083 576.975 394.034 572.517 389.574C568.06 385.114 562.015 382.608 555.711 382.608H208.931C202.631 382.614 196.59 385.12 192.135 389.577C187.679 394.034 185.172 400.077 185.163 406.381Z" fill="#322E3D"/>
<path d="M241.936 150.552L529.744 150.552V132.938L241.936 132.938V150.552Z" fill="#322E3D"/>
<path d="M398.162 137.342H373.517C373.517 134.772 374.537 132.308 376.353 130.492C378.169 128.675 380.631 127.654 383.199 127.654H388.48C389.751 127.654 391.01 127.905 392.185 128.392C393.36 128.878 394.427 129.592 395.326 130.492C396.225 131.391 396.938 132.459 397.425 133.634C397.911 134.81 398.162 136.069 398.162 137.342H398.162Z" fill="#322E3D"/>
<path d="M0 419.966C7.69867 429.093 16.0256 437.671 24.92 445.637H739.713C748.607 437.671 756.934 429.093 764.633 419.966H0Z" fill="#3F3D56"/>
<path d="M351.548 334.121V425.065H415.221V334.121C415.222 333.467 415.014 332.83 414.626 332.303C414.239 331.777 413.692 331.388 413.068 331.195C412.773 331.098 412.465 331.05 412.155 331.053H354.623C354.219 331.052 353.82 331.131 353.447 331.285C353.074 331.439 352.735 331.665 352.45 331.95C352.164 332.234 351.937 332.573 351.783 332.946C351.628 333.318 351.548 333.718 351.548 334.121ZM376.397 365.37C376.414 363.577 377.137 361.863 378.41 360.602C379.683 359.34 381.402 358.632 383.194 358.632C384.986 358.632 386.705 359.34 387.978 360.602C389.251 361.863 389.974 363.577 389.991 365.37V375.922C389.982 377.72 389.262 379.441 387.988 380.709C386.714 381.977 384.991 382.689 383.194 382.689C381.397 382.689 379.674 381.977 378.4 380.709C377.126 379.441 376.406 377.72 376.397 375.922V365.37Z" fill="#2F2E41"/>
<path d="M351.353 422.156V430.926C351.354 431.38 351.535 431.816 351.855 432.138C352.175 432.46 352.609 432.643 353.063 432.646H413.706C414.16 432.644 414.595 432.462 414.916 432.139C415.237 431.817 415.416 431.381 415.416 430.926V422.156H351.353Z" fill="#3F3D56"/>
<path d="M251.38 197.103V363.153C251.382 365.269 252.223 367.298 253.718 368.794C255.213 370.29 257.241 371.132 259.356 371.133H505.277C507.392 371.132 509.42 370.29 510.915 368.794C512.41 367.298 513.251 365.269 513.253 363.153V197.103C513.248 194.989 512.406 192.963 510.911 191.469C509.416 189.974 507.39 189.134 505.277 189.131H259.356C257.243 189.134 255.217 189.975 253.722 191.469C252.227 192.963 251.385 194.989 251.38 197.103Z" fill="#3F3D56"/>
<path d="M257.149 199.169V361.105C257.151 362.235 257.601 363.319 258.4 364.118C259.199 364.918 260.282 365.368 261.412 365.37H503.23C504.36 365.368 505.443 364.918 506.242 364.118C507.041 363.319 507.491 362.235 507.493 361.105V199.169C507.493 198.037 507.044 196.952 506.245 196.15C505.446 195.349 504.361 194.898 503.23 194.895H261.412C260.281 194.898 259.197 195.349 258.398 196.15C257.598 196.952 257.15 198.037 257.149 199.169Z" fill="url(#paint0_linear_128_1425)"/>
<path d="M306.458 434.712C306.704 435.021 307.017 435.27 307.373 435.441C307.729 435.611 308.119 435.699 308.514 435.697H452.38C452.773 435.696 453.162 435.608 453.517 435.438C453.872 435.269 454.185 435.022 454.433 434.716C454.68 434.411 454.857 434.053 454.95 433.671C455.042 433.288 455.048 432.89 454.968 432.504L452.734 421.89C452.642 421.457 452.442 421.055 452.155 420.718C451.867 420.382 451.499 420.124 451.086 419.966C450.787 419.848 450.468 419.788 450.147 419.789H310.738C310.417 419.788 310.098 419.848 309.799 419.966C309.385 420.124 309.018 420.382 308.73 420.718C308.442 421.054 308.243 421.457 308.15 421.89L305.917 432.504C305.838 432.889 305.845 433.287 305.939 433.669C306.032 434.051 306.209 434.408 306.458 434.712Z" fill="#2F2E41"/>
<path d="M445.126 424.36H448.692C448.931 424.36 449.125 424.167 449.125 423.927V422.133C449.125 421.894 448.931 421.7 448.692 421.7H445.126C444.887 421.7 444.694 421.894 444.694 422.133V423.927C444.694 424.167 444.887 424.36 445.126 424.36Z" fill="#3F3D56"/>
<path d="M436.264 424.36H439.83C440.069 424.36 440.263 424.167 440.263 423.927V422.133C440.263 421.894 440.069 421.7 439.83 421.7H436.264C436.025 421.7 435.832 421.894 435.832 422.133V423.927C435.832 424.167 436.025 424.36 436.264 424.36Z" fill="#3F3D56"/>
<path d="M427.402 424.36H430.968C431.207 424.36 431.401 424.167 431.401 423.927V422.133C431.401 421.894 431.207 421.7 430.968 421.7H427.402C427.163 421.7 426.97 421.894 426.97 422.133V423.927C426.97 424.167 427.163 424.36 427.402 424.36Z" fill="#3F3D56"/>
<path d="M418.54 424.36H422.106C422.345 424.36 422.539 424.167 422.539 423.927V422.133C422.539 421.894 422.345 421.7 422.106 421.7H418.54C418.301 421.7 418.108 421.894 418.108 422.133V423.927C418.108 424.167 418.301 424.36 418.54 424.36Z" fill="#3F3D56"/>
<path d="M409.678 424.36H413.244C413.483 424.36 413.677 424.167 413.677 423.927V422.133C413.677 421.894 413.483 421.7 413.244 421.7H409.678C409.439 421.7 409.245 421.894 409.245 422.133V423.927C409.245 424.167 409.439 424.36 409.678 424.36Z" fill="#3F3D56"/>
<path d="M400.816 424.36H404.382C404.621 424.36 404.814 424.167 404.814 423.927V422.133C404.814 421.894 404.621 421.7 404.382 421.7H400.816C400.577 421.7 400.383 421.894 400.383 422.133V423.927C400.383 424.167 400.577 424.36 400.816 424.36Z" fill="#3F3D56"/>
<path d="M391.954 424.36H395.52C395.759 424.36 395.953 424.167 395.953 423.927V422.133C395.953 421.894 395.759 421.7 395.52 421.7H391.954C391.715 421.7 391.522 421.894 391.522 422.133V423.927C391.522 424.167 391.715 424.36 391.954 424.36Z" fill="#3F3D56"/>
<path d="M383.092 424.36H386.658C386.897 424.36 387.091 424.167 387.091 423.927V422.133C387.091 421.894 386.897 421.7 386.658 421.7H383.092C382.853 421.7 382.66 421.894 382.66 422.133V423.927C382.66 424.167 382.853 424.36 383.092 424.36Z" fill="#3F3D56"/>
<path d="M374.23 424.36H377.796C378.035 424.36 378.229 424.167 378.229 423.927V422.133C378.229 421.894 378.035 421.7 377.796 421.7H374.23C373.991 421.7 373.797 421.894 373.797 422.133V423.927C373.797 424.167 373.991 424.36 374.23 424.36Z" fill="#3F3D56"/>
<path d="M365.368 424.36H368.934C369.173 424.36 369.366 424.167 369.366 423.927V422.133C369.366 421.894 369.173 421.7 368.934 421.7H365.368C365.129 421.7 364.935 421.894 364.935 422.133V423.927C364.935 424.167 365.129 424.36 365.368 424.36Z" fill="#3F3D56"/>
<path d="M356.506 424.36H360.072C360.311 424.36 360.504 424.167 360.504 423.927V422.133C360.504 421.894 360.311 421.7 360.072 421.7H356.506C356.267 421.7 356.073 421.894 356.073 422.133V423.927C356.073 424.167 356.267 424.36 356.506 424.36Z" fill="#3F3D56"/>
<path d="M347.644 424.36H351.21C351.449 424.36 351.642 424.167 351.642 423.927V422.133C351.642 421.894 351.449 421.7 351.21 421.7H347.644C347.405 421.7 347.211 421.894 347.211 422.133V423.927C347.211 424.167 347.405 424.36 347.644 424.36Z" fill="#3F3D56"/>
<path d="M338.782 424.36H342.348C342.587 424.36 342.781 424.167 342.781 423.927V422.133C342.781 421.894 342.587 421.7 342.348 421.7H338.782C338.543 421.7 338.349 421.894 338.349 422.133V423.927C338.349 424.167 338.543 424.36 338.782 424.36Z" fill="#3F3D56"/>
<path d="M329.92 424.36H333.486C333.725 424.36 333.918 424.167 333.918 423.927V422.133C333.918 421.894 333.725 421.7 333.486 421.7H329.92C329.681 421.7 329.487 421.894 329.487 422.133V423.927C329.487 424.167 329.681 424.36 329.92 424.36Z" fill="#3F3D56"/>
<path d="M321.058 424.36H324.624C324.863 424.36 325.056 424.167 325.056 423.927V422.133C325.056 421.894 324.863 421.7 324.624 421.7H321.058C320.819 421.7 320.625 421.894 320.625 422.133V423.927C320.625 424.167 320.819 424.36 321.058 424.36Z" fill="#3F3D56"/>
<path d="M312.196 424.36H315.762C316.001 424.36 316.194 424.167 316.194 423.927V422.133C316.194 421.894 316.001 421.7 315.762 421.7H312.196C311.957 421.7 311.763 421.894 311.763 422.133V423.927C311.763 424.167 311.957 424.36 312.196 424.36Z" fill="#3F3D56"/>
<path d="M445.231 428.794H448.797C449.036 428.794 449.229 428.6 449.229 428.361V426.567C449.229 426.328 449.036 426.134 448.797 426.134H445.231C444.992 426.134 444.798 426.328 444.798 426.567V428.361C444.798 428.6 444.992 428.794 445.231 428.794Z" fill="#3F3D56"/>
<path d="M436.369 428.794H439.935C440.174 428.794 440.367 428.6 440.367 428.361V426.567C440.367 426.328 440.174 426.134 439.935 426.134H436.369C436.13 426.134 435.936 426.328 435.936 426.567V428.361C435.936 428.6 436.13 428.794 436.369 428.794Z" fill="#3F3D56"/>
<path d="M427.507 428.794H431.073C431.312 428.794 431.505 428.6 431.505 428.361V426.567C431.505 426.328 431.312 426.134 431.073 426.134H427.507C427.268 426.134 427.074 426.328 427.074 426.567V428.361C427.074 428.6 427.268 428.794 427.507 428.794Z" fill="#3F3D56"/>
<path d="M418.645 428.794H422.211C422.45 428.794 422.643 428.6 422.643 428.361V426.567C422.643 426.328 422.45 426.134 422.211 426.134H418.645C418.406 426.134 418.212 426.328 418.212 426.567V428.361C418.212 428.6 418.406 428.794 418.645 428.794Z" fill="#3F3D56"/>
<path d="M409.783 428.794H413.349C413.588 428.794 413.781 428.6 413.781 428.361V426.567C413.781 426.328 413.588 426.134 413.349 426.134H409.783C409.544 426.134 409.35 426.328 409.35 426.567V428.361C409.35 428.6 409.544 428.794 409.783 428.794Z" fill="#3F3D56"/>
<path d="M400.921 428.794H404.487C404.726 428.794 404.919 428.6 404.919 428.361V426.567C404.919 426.328 404.726 426.134 404.487 426.134H400.921C400.682 426.134 400.488 426.328 400.488 426.567V428.361C400.488 428.6 400.682 428.794 400.921 428.794Z" fill="#3F3D56"/>
<path d="M392.059 428.794H395.625C395.864 428.794 396.057 428.6 396.057 428.361V426.567C396.057 426.328 395.864 426.134 395.625 426.134H392.059C391.82 426.134 391.626 426.328 391.626 426.567V428.361C391.626 428.6 391.82 428.794 392.059 428.794Z" fill="#3F3D56"/>
<path d="M383.197 428.794H386.763C387.002 428.794 387.195 428.6 387.195 428.361V426.567C387.195 426.328 387.002 426.134 386.763 426.134H383.197C382.958 426.134 382.764 426.328 382.764 426.567V428.361C382.764 428.6 382.958 428.794 383.197 428.794Z" fill="#3F3D56"/>
<path d="M374.335 428.794H377.901C378.14 428.794 378.333 428.6 378.333 428.361V426.567C378.333 426.328 378.14 426.134 377.901 426.134H374.335C374.096 426.134 373.902 426.328 373.902 426.567V428.361C373.902 428.6 374.096 428.794 374.335 428.794Z" fill="#3F3D56"/>
<path d="M365.473 428.794H369.039C369.277 428.794 369.471 428.6 369.471 428.361V426.567C369.471 426.328 369.277 426.134 369.039 426.134H365.473C365.234 426.134 365.04 426.328 365.04 426.567V428.361C365.04 428.6 365.234 428.794 365.473 428.794Z" fill="#3F3D56"/>
<path d="M356.611 428.794H360.176C360.415 428.794 360.609 428.6 360.609 428.361V426.567C360.609 426.328 360.415 426.134 360.176 426.134H356.611C356.372 426.134 356.178 426.328 356.178 426.567V428.361C356.178 428.6 356.372 428.794 356.611 428.794Z" fill="#3F3D56"/>
<path d="M347.749 428.794H351.314C351.553 428.794 351.747 428.6 351.747 428.361V426.567C351.747 426.328 351.553 426.134 351.314 426.134H347.749C347.51 426.134 347.316 426.328 347.316 426.567V428.361C347.316 428.6 347.51 428.794 347.749 428.794Z" fill="#3F3D56"/>
<path d="M338.887 428.794H342.453C342.692 428.794 342.885 428.6 342.885 428.361V426.567C342.885 426.328 342.692 426.134 342.453 426.134H338.887C338.648 426.134 338.454 426.328 338.454 426.567V428.361C338.454 428.6 338.648 428.794 338.887 428.794Z" fill="#3F3D56"/>
<path d="M330.025 428.794H333.591C333.829 428.794 334.023 428.6 334.023 428.361V426.567C334.023 426.328 333.829 426.134 333.591 426.134H330.025C329.786 426.134 329.592 426.328 329.592 426.567V428.361C329.592 428.6 329.786 428.794 330.025 428.794Z" fill="#3F3D56"/>
<path d="M321.163 428.794H324.728C324.967 428.794 325.161 428.6 325.161 428.361V426.567C325.161 426.328 324.967 426.134 324.728 426.134H321.163C320.924 426.134 320.73 426.328 320.73 426.567V428.361C320.73 428.6 320.924 428.794 321.163 428.794Z" fill="#3F3D56"/>
<path d="M312.301 428.794H315.866C316.105 428.794 316.299 428.6 316.299 428.361V426.567C316.299 426.328 316.105 426.134 315.866 426.134H312.301C312.062 426.134 311.868 426.328 311.868 426.567V428.361C311.868 428.6 312.062 428.794 312.301 428.794Z" fill="#3F3D56"/>
<path d="M371.676 434.115H406.259C406.498 434.115 406.692 433.921 406.692 433.682V431.887C406.692 431.648 406.498 431.454 406.259 431.454H371.676C371.437 431.454 371.244 431.648 371.244 431.887V433.682C371.244 433.921 371.437 434.115 371.676 434.115Z" fill="#3F3D56"/>
<path d="M273.563 217.203H499.831C500.067 217.197 500.291 217.1 500.455 216.932C500.62 216.764 500.712 216.538 500.712 216.302C500.712 216.067 500.62 215.841 500.455 215.672C500.291 215.504 500.067 215.407 499.831 215.402H273.563C273.328 215.407 273.104 215.504 272.94 215.672C272.775 215.841 272.683 216.067 272.683 216.302C272.683 216.538 272.775 216.764 272.94 216.932C273.104 217.1 273.328 217.197 273.563 217.203Z" fill="#3F3D56"/>
<path d="M484.429 210.805C487.342 210.805 489.703 208.39 489.703 205.411C489.703 202.432 487.342 200.017 484.429 200.017C481.517 200.017 479.156 202.432 479.156 205.411C479.156 208.39 481.517 210.805 484.429 210.805Z" fill="#3F3D56"/>
<path d="M466.212 210.805C469.125 210.805 471.486 208.39 471.486 205.411C471.486 202.432 469.125 200.017 466.212 200.017C463.3 200.017 460.939 202.432 460.939 205.411C460.939 208.39 463.3 210.805 466.212 210.805Z" fill="#3F3D56"/>
<path d="M447.996 210.805C450.908 210.805 453.269 208.39 453.269 205.411C453.269 202.432 450.908 200.017 447.996 200.017C445.083 200.017 442.722 202.432 442.722 205.411C442.722 208.39 445.083 210.805 447.996 210.805Z" fill="#3F3D56"/>
<path d="M283.567 202.335C283.566 202.462 283.591 202.589 283.639 202.707C283.687 202.825 283.758 202.932 283.848 203.023C283.938 203.113 284.044 203.185 284.162 203.235C284.279 203.284 284.405 203.31 284.533 203.31H297.471C297.727 203.304 297.97 203.198 298.149 203.015C298.328 202.832 298.428 202.586 298.428 202.33C298.428 202.074 298.328 201.829 298.149 201.646C297.97 201.462 297.727 201.357 297.471 201.351H284.533C284.275 201.354 284.028 201.459 283.847 201.643C283.666 201.828 283.565 202.076 283.567 202.335Z" fill="#3F3D56"/>
<path d="M283.567 206.015C283.566 206.142 283.591 206.269 283.639 206.387C283.687 206.505 283.758 206.612 283.848 206.703C283.938 206.793 284.044 206.865 284.162 206.915C284.279 206.964 284.405 206.99 284.533 206.99H297.471C297.727 206.984 297.971 206.879 298.15 206.696C298.329 206.512 298.429 206.267 298.429 206.01C298.429 205.754 298.329 205.508 298.15 205.325C297.971 205.142 297.727 205.036 297.471 205.031H284.533C284.275 205.034 284.028 205.139 283.847 205.323C283.666 205.508 283.565 205.756 283.567 206.015Z" fill="#3F3D56"/>
<path d="M283.567 209.686C283.565 209.944 283.666 210.193 283.847 210.377C284.028 210.562 284.275 210.667 284.533 210.67H297.471C297.727 210.664 297.97 210.558 298.149 210.375C298.328 210.192 298.428 209.946 298.428 209.69C298.428 209.434 298.328 209.188 298.149 209.005C297.97 208.822 297.727 208.716 297.471 208.71H284.533C284.405 208.711 284.279 208.737 284.162 208.786C284.044 208.835 283.938 208.907 283.848 208.998C283.758 209.088 283.687 209.196 283.639 209.314C283.591 209.432 283.566 209.558 283.567 209.686Z" fill="#3F3D56"/>
<path d="M287.566 238.126H282.916C281.507 238.126 280.364 239.27 280.364 240.68C280.364 242.091 281.507 243.234 282.916 243.234H287.566C288.975 243.234 290.118 242.091 290.118 240.68C290.118 239.27 288.975 238.126 287.566 238.126Z" fill="#3F3D57"/>
<path d="M340.738 238.126H336.089C334.679 238.126 333.536 239.27 333.536 240.68C333.536 242.091 334.679 243.234 336.089 243.234H340.738C342.147 243.234 343.29 242.091 343.29 240.68C343.29 239.27 342.147 238.126 340.738 238.126Z" fill="#3F3D57"/>
<path d="M355.803 238.126H351.154C349.744 238.126 348.602 239.27 348.602 240.68C348.602 242.091 349.744 243.234 351.154 243.234H355.803C357.213 243.234 358.355 242.091 358.355 240.68C358.355 239.27 357.213 238.126 355.803 238.126Z" fill="#3F3D57"/>
<path d="M326.275 237.701H297.379C295.97 237.701 294.827 238.844 294.827 240.254C294.827 241.665 295.97 242.808 297.379 242.808H326.275C327.684 242.808 328.827 241.665 328.827 240.254C328.827 238.844 327.684 237.701 326.275 237.701Z" fill="#3F3D57"/>
<path d="M397.171 237.701H368.276C366.866 237.701 365.723 238.844 365.723 240.254C365.723 241.665 366.866 242.808 368.276 242.808H397.171C398.58 242.808 399.723 241.665 399.723 240.254C399.723 238.844 398.58 237.701 397.171 237.701Z" fill="#3F3D57"/>
<path d="M301.745 249.654H297.096C295.686 249.654 294.543 250.797 294.543 252.208C294.543 253.618 295.686 254.761 297.096 254.761H301.745C303.154 254.761 304.297 253.618 304.297 252.208C304.297 250.797 303.154 249.654 301.745 249.654Z" fill="#3F3D57"/>
<path d="M354.917 249.654H350.268C348.858 249.654 347.716 250.797 347.716 252.208C347.716 253.618 348.858 254.761 350.268 254.761H354.917C356.327 254.761 357.469 253.618 357.469 252.208C357.469 250.797 356.327 249.654 354.917 249.654Z" fill="#3F3D57"/>
<path d="M369.982 249.654H365.333C363.924 249.654 362.781 250.797 362.781 252.208C362.781 253.618 363.924 254.761 365.333 254.761H369.982C371.392 254.761 372.535 253.618 372.535 252.208C372.535 250.797 371.392 249.654 369.982 249.654Z" fill="#3F3D57"/>
<path d="M340.454 249.228H311.559C310.149 249.228 309.007 250.372 309.007 251.782C309.007 253.192 310.149 254.336 311.559 254.336H340.454C341.864 254.336 343.006 253.192 343.006 251.782C343.006 250.372 341.864 249.228 340.454 249.228Z" fill="#3F3D57"/>
<path d="M411.35 249.228H382.455C381.045 249.228 379.903 250.372 379.903 251.782C379.903 253.192 381.045 254.336 382.455 254.336H411.35C412.76 254.336 413.903 253.192 413.903 251.782C413.903 250.372 412.76 249.228 411.35 249.228Z" fill="#3F3D57"/>
<path d="M315.924 261.181H311.275C309.865 261.181 308.723 262.325 308.723 263.735C308.723 265.146 309.865 266.289 311.275 266.289H315.924C317.334 266.289 318.476 265.146 318.476 263.735C318.476 262.325 317.334 261.181 315.924 261.181Z" fill="#3F3D57"/>
<path d="M369.096 261.181H364.447C363.038 261.181 361.895 262.325 361.895 263.735C361.895 265.146 363.038 266.289 364.447 266.289H369.096C370.506 266.289 371.649 265.146 371.649 263.735C371.649 262.325 370.506 261.181 369.096 261.181Z" fill="#3F3D57"/>
<path d="M384.162 261.181H379.513C378.103 261.181 376.96 262.325 376.96 263.735C376.96 265.146 378.103 266.289 379.513 266.289H384.162C385.571 266.289 386.714 265.146 386.714 263.735C386.714 262.325 385.571 261.181 384.162 261.181Z" fill="#3F3D57"/>
<path d="M354.633 260.756H325.738C324.328 260.756 323.186 261.899 323.186 263.309C323.186 264.72 324.328 265.863 325.738 265.863H354.633C356.043 265.863 357.186 264.72 357.186 263.309C357.186 261.899 356.043 260.756 354.633 260.756Z" fill="#3F3D57"/>
<path d="M425.53 260.756H396.634C395.225 260.756 394.082 261.899 394.082 263.309C394.082 264.72 395.225 265.863 396.634 265.863H425.53C426.939 265.863 428.082 264.72 428.082 263.309C428.082 261.899 426.939 260.756 425.53 260.756Z" fill="#3F3D57"/>
<path d="M330.103 272.709H325.454C324.045 272.709 322.902 273.852 322.902 275.263C322.902 276.673 324.045 277.817 325.454 277.817H330.103C331.513 277.817 332.656 276.673 332.656 275.263C332.656 273.852 331.513 272.709 330.103 272.709Z" fill="#3F3D57"/>
<path d="M383.276 272.709H378.626C377.217 272.709 376.074 273.852 376.074 275.263C376.074 276.673 377.217 277.817 378.626 277.817H383.276C384.685 277.817 385.828 276.673 385.828 275.263C385.828 273.852 384.685 272.709 383.276 272.709Z" fill="#3F3D57"/>
<path d="M398.341 272.709H393.692C392.282 272.709 391.14 273.852 391.14 275.263C391.14 276.673 392.282 277.817 393.692 277.817H398.341C399.751 277.817 400.893 276.673 400.893 275.263C400.893 273.852 399.751 272.709 398.341 272.709Z" fill="#3F3D57"/>
<path d="M368.813 272.283H339.917C338.508 272.283 337.365 273.427 337.365 274.837C337.365 276.247 338.508 277.391 339.917 277.391H368.813C370.222 277.391 371.365 276.247 371.365 274.837C371.365 273.427 370.222 272.283 368.813 272.283Z" fill="#3F3D57"/>
<path d="M340.738 318.547H336.089C334.679 318.547 333.536 319.691 333.536 321.101C333.536 322.512 334.679 323.655 336.089 323.655H340.738C342.147 323.655 343.29 322.512 343.29 321.101C343.29 319.691 342.147 318.547 340.738 318.547Z" fill="#3F3D57"/>
<path d="M355.803 318.547H351.154C349.744 318.547 348.602 319.691 348.602 321.101C348.602 322.512 349.744 323.655 351.154 323.655H355.803C357.213 323.655 358.355 322.512 358.355 321.101C358.355 319.691 357.213 318.547 355.803 318.547Z" fill="#3F3D57"/>
<path d="M397.171 318.973H368.276C366.866 318.973 365.723 320.117 365.723 321.527C365.723 322.937 366.866 324.081 368.276 324.081H397.171C398.58 324.081 399.723 322.937 399.723 321.527C399.723 320.117 398.58 318.973 397.171 318.973Z" fill="#3F3D57"/>
<path d="M287.566 318.547H282.916C281.507 318.547 280.364 319.691 280.364 321.101C280.364 322.512 281.507 323.655 282.916 323.655H287.566C288.975 323.655 290.118 322.512 290.118 321.101C290.118 319.691 288.975 318.547 287.566 318.547Z" fill="#3F3D57"/>
<path d="M326.275 318.973H297.379C295.97 318.973 294.827 320.117 294.827 321.527C294.827 322.937 295.97 324.081 297.379 324.081H326.275C327.684 324.081 328.827 322.937 328.827 321.527C328.827 320.117 327.684 318.973 326.275 318.973Z" fill="#3F3D57"/>
<path d="M301.745 307.02H297.096C295.686 307.02 294.543 308.163 294.543 309.574C294.543 310.984 295.686 312.127 297.096 312.127H301.745C303.154 312.127 304.297 310.984 304.297 309.574C304.297 308.163 303.154 307.02 301.745 307.02Z" fill="#3F3D57"/>
<path d="M354.917 307.02H350.268C348.858 307.02 347.716 308.163 347.716 309.574C347.716 310.984 348.858 312.127 350.268 312.127H354.917C356.327 312.127 357.469 310.984 357.469 309.574C357.469 308.163 356.327 307.02 354.917 307.02Z" fill="#3F3D57"/>
<path d="M369.982 307.02H365.333C363.924 307.02 362.781 308.163 362.781 309.574C362.781 310.984 363.924 312.127 365.333 312.127H369.982C371.392 312.127 372.535 310.984 372.535 309.574C372.535 308.163 371.392 307.02 369.982 307.02Z" fill="#3F3D57"/>
<path d="M340.454 307.446H311.559C310.149 307.446 309.007 308.589 309.007 309.999C309.007 311.41 310.149 312.553 311.559 312.553H340.454C341.864 312.553 343.006 311.41 343.006 309.999C343.006 308.589 341.864 307.446 340.454 307.446Z" fill="#3F3D57"/>
<path d="M315.924 295.492H311.275C309.865 295.492 308.723 296.636 308.723 298.046C308.723 299.456 309.865 300.6 311.275 300.6H315.924C317.334 300.6 318.476 299.456 318.476 298.046C318.476 296.636 317.334 295.492 315.924 295.492Z" fill="#3F3D57"/>
<path d="M369.096 295.492H364.447C363.038 295.492 361.895 296.636 361.895 298.046C361.895 299.456 363.038 300.6 364.447 300.6H369.096C370.506 300.6 371.649 299.456 371.649 298.046C371.649 296.636 370.506 295.492 369.096 295.492Z" fill="#3F3D57"/>
<path d="M384.162 295.492H379.513C378.103 295.492 376.96 296.636 376.96 298.046C376.96 299.456 378.103 300.6 379.513 300.6H384.162C385.571 300.6 386.714 299.456 386.714 298.046C386.714 296.636 385.571 295.492 384.162 295.492Z" fill="#3F3D57"/>
<path d="M354.633 295.918H325.738C324.328 295.918 323.186 297.061 323.186 298.472C323.186 299.882 324.328 301.026 325.738 301.026H354.633C356.043 301.026 357.186 299.882 357.186 298.472C357.186 297.061 356.043 295.918 354.633 295.918Z" fill="#3F3D57"/>
<path d="M330.103 283.965H325.454C324.045 283.965 322.902 285.108 322.902 286.519C322.902 287.929 324.045 289.072 325.454 289.072H330.103C331.513 289.072 332.656 287.929 332.656 286.519C332.656 285.108 331.513 283.965 330.103 283.965Z" fill="#3F3D57"/>
<path d="M383.276 283.965H378.626C377.217 283.965 376.074 285.108 376.074 286.519C376.074 287.929 377.217 289.072 378.626 289.072H383.276C384.685 289.072 385.828 287.929 385.828 286.519C385.828 285.108 384.685 283.965 383.276 283.965Z" fill="#3F3D57"/>
<path d="M398.341 283.965H393.692C392.282 283.965 391.14 285.108 391.14 286.519C391.14 287.929 392.282 289.072 393.692 289.072H398.341C399.751 289.072 400.893 287.929 400.893 286.519C400.893 285.108 399.751 283.965 398.341 283.965Z" fill="#3F3D57"/>
<path d="M368.813 284.391H339.917C338.508 284.391 337.365 285.534 337.365 286.944C337.365 288.355 338.508 289.498 339.917 289.498H368.813C370.222 289.498 371.365 288.355 371.365 286.944C371.365 285.534 370.222 284.391 368.813 284.391Z" fill="#3F3D57"/>
<path d="M310.093 484.114C309.898 484.212 309.703 484.309 309.508 484.398C308.276 485.01 307.035 485.613 305.786 486.207C302.046 487.989 298.259 489.683 294.425 491.288C284.336 495.51 273.984 499.073 263.434 501.955C261.662 490.898 259.943 464.819 258.294 445.639C257.984 442.03 257.674 438.669 257.364 435.699C257.069 431.799 256.51 427.924 255.689 424.1C255.608 423.801 255.492 423.512 255.343 423.24C255.512 424.774 255.689 429.35 255.857 435.699C255.946 438.669 256.026 442.03 256.114 445.639C256.531 464.101 256.965 489.222 257.399 503.525C256.167 503.826 254.927 504.128 253.686 504.412C252.906 504.598 252.117 504.775 251.329 504.944C250.372 505.156 249.414 505.369 248.457 505.564C247.456 505.777 246.455 505.981 245.453 506.176C229.089 509.393 212.45 511.008 195.773 511C194.665 511 193.566 510.991 192.458 510.982C192.121 510.982 191.785 510.973 191.439 510.965C190.464 510.947 189.454 510.929 188.426 510.902C168.718 510.357 149.138 507.533 130.078 502.487L130.849 445.639L130.982 435.699L131.036 431.93C130.597 433.142 130.334 434.411 130.256 435.699C129.946 438.119 129.626 441.551 129.307 445.639C128.093 461.387 126.844 486.792 125.55 501.246C110.228 496.883 99.0259 492.902 85.0239 485.897C84.4833 485.631 83.9339 485.356 83.3933 485.081C83.4908 484.398 83.5971 483.715 83.6946 483.015C85.2809 471.984 83.411 457.627 85.1657 445.639C86.5039 436.39 87.8864 427.505 89.2777 419.968C90.9615 410.897 92.6718 403.767 94.3645 400.3C96.3141 396.301 98.2638 392.364 100.151 388.595C100.967 386.973 101.767 385.379 102.553 383.816C102.978 382.973 103.404 382.14 103.82 381.324C105.717 377.609 107.507 374.177 109.146 371.136C110.298 368.998 111.362 367.065 112.337 365.372C113.48 363.377 114.49 361.727 115.323 360.477C121.476 351.145 130.631 344.196 141.271 340.783L141.537 340.712L141.794 340.818L142.086 340.951L158.977 334.771L166.519 316.601L205.255 314.216L211.512 318.978L214.711 321.416L218.123 324.014L224.397 328.794L226.178 329.344L228.828 330.16L246.951 335.728L247.137 335.648L247.403 335.719C257.085 338.821 265.56 344.865 271.649 353.011C272.252 353.791 272.81 354.598 273.351 355.414C274.822 357.595 276.807 361.044 279.147 365.372C280.112 367.154 281.132 369.087 282.204 371.136C282.851 372.368 288.434 389.801 293.866 407.607C298.944 424.277 303.889 441.276 304.536 445.639C304.651 446.446 304.775 447.262 304.891 448.069C305.626 453.114 306.353 458.195 307.053 463.152C308.09 470.503 309.1 477.597 310.066 483.937C310.075 483.999 310.084 484.052 310.093 484.114Z" fill="#3F3D56"/>
<path opacity="0.2" d="M269.042 419.927L261.512 390.849L254.863 415.94L269.042 419.927Z" fill="black"/>
<path d="M14.028 419.59C14.4184 420.727 15.159 421.712 16.1435 422.402C17.128 423.092 18.3057 423.452 19.5074 423.43L42.9846 422.826C44.1951 422.802 45.3656 422.387 46.3209 421.643C47.2763 420.898 47.9652 419.865 48.2848 418.696L51.6071 383.149C52.7858 383.684 54.069 383.947 55.3627 383.922C57.6328 383.865 59.7872 382.907 61.3521 381.261C62.9169 379.615 63.7641 377.414 63.7071 375.142C63.6501 372.871 62.6937 370.715 61.0482 369.149C59.4028 367.583 57.2031 366.736 54.933 366.793C54.4159 366.791 53.9001 366.845 53.3944 366.953C52.8445 366.358 52.176 365.884 51.4321 365.563C50.6881 365.242 49.8852 365.08 49.075 365.088L12.9618 366.021C12.6622 366.032 12.3642 366.069 12.071 366.132C11.279 366.28 10.5279 366.595 9.86813 367.058C9.20836 367.521 8.65525 368.119 8.24607 368.814C7.83689 369.508 7.58111 370.282 7.49596 371.083C7.4108 371.885 7.49824 372.696 7.75239 373.46L14.028 419.59ZM52.2884 380.736L54.6524 372.265C54.9214 371.287 54.9276 370.254 54.6705 369.273C54.7852 369.272 54.8864 369.218 55.0011 369.218C56.6221 369.184 58.1902 369.795 59.3616 370.917C60.5331 372.038 61.2122 373.579 61.2502 375.201C61.2881 376.823 60.6818 378.393 59.5641 379.569C58.4464 380.744 56.9086 381.427 55.2879 381.47C54.2399 381.503 53.2029 381.249 52.2884 380.736Z" fill="#2F2E41"/>
<path d="M12.071 366.132C12.8404 370.534 21.4906 373.628 31.8917 373.09C41.4562 372.65 49.2768 369.289 50.7095 365.306C50.1793 365.149 49.6279 365.076 49.0751 365.088L12.9618 366.021C12.6623 366.032 12.3642 366.069 12.071 366.132Z" fill="#3F3D56"/>
<path d="M33.798 400.056C33.8456 400.044 33.8908 400.025 33.9318 399.998L39.0302 396.658C39.0918 396.618 39.1425 396.563 39.1776 396.499C39.2126 396.434 39.231 396.361 39.231 396.288C39.231 396.214 39.2127 396.142 39.1777 396.077C39.1427 396.012 39.0921 395.957 39.0305 395.917L33.7312 392.444C33.6825 392.412 33.628 392.389 33.5708 392.378C33.5135 392.367 33.4546 392.368 33.3975 392.379C33.3404 392.391 33.2862 392.414 33.2379 392.447C33.1897 392.48 33.1484 392.522 33.1164 392.571C33.0845 392.619 33.0624 392.674 33.0516 392.731C33.0408 392.789 33.0414 392.848 33.0534 392.905C33.0654 392.962 33.0886 393.016 33.1216 393.064C33.1545 393.112 33.1967 393.153 33.2456 393.185L37.9788 396.287L33.4467 399.256C33.359 399.313 33.2944 399.4 33.2645 399.5C33.2346 399.601 33.2414 399.709 33.2835 399.805C33.3256 399.901 33.4005 399.979 33.4947 400.025C33.5889 400.071 33.6963 400.082 33.798 400.056H33.798Z" fill="#FF4949"/>
<path d="M25.7451 400.428C25.8307 400.406 25.9078 400.36 25.9667 400.294C26.0255 400.228 26.0634 400.146 26.0754 400.059C26.0874 399.971 26.073 399.882 26.034 399.803C25.9951 399.724 25.9334 399.658 25.8568 399.614L21.1573 396.918L25.6996 393.542C25.7463 393.507 25.7856 393.464 25.8155 393.414C25.8453 393.364 25.8651 393.308 25.8735 393.251C25.882 393.193 25.8791 393.135 25.8649 393.078C25.8507 393.022 25.8256 392.969 25.7909 392.922C25.7562 392.875 25.7127 392.836 25.6628 392.806C25.6129 392.776 25.5576 392.756 25.5001 392.748C25.4425 392.739 25.3839 392.742 25.3275 392.757C25.2711 392.771 25.2181 392.796 25.1714 392.831L20.0858 396.61C20.0267 396.654 19.9795 396.712 19.9484 396.779C19.9172 396.845 19.9032 396.919 19.9075 396.992C19.9118 397.066 19.9344 397.137 19.9731 397.2C20.0119 397.262 20.0656 397.314 20.1294 397.351L25.4158 400.383C25.5156 400.44 25.6337 400.456 25.7451 400.428Z" fill="#FF4949"/>
<path d="M33.2909 402.983C33.3338 402.972 33.3747 402.955 33.4123 402.931C33.4621 402.901 33.5054 402.861 33.5398 402.814C33.5742 402.768 33.599 402.714 33.6128 402.658C33.6265 402.601 33.6291 402.542 33.6201 402.485C33.6112 402.427 33.591 402.372 33.5607 402.322L26.3333 390.433C26.2719 390.333 26.1734 390.261 26.0594 390.234C25.9454 390.206 25.8252 390.225 25.7251 390.286C25.625 390.347 25.5531 390.445 25.5252 390.559C25.4973 390.673 25.5156 390.794 25.5762 390.894L32.8035 402.784C32.8529 402.865 32.9268 402.928 33.0145 402.963C33.1022 402.999 33.1991 403.006 33.2909 402.983Z" fill="#FF4949"/>
<path d="M695.801 485.079C695.26 485.354 694.711 485.629 694.17 485.895C680.168 492.9 668.967 496.881 653.644 501.244C652.351 486.79 651.101 461.385 649.887 445.637C649.568 441.549 649.249 438.117 648.939 435.697C648.86 434.41 648.598 433.14 648.159 431.928L648.212 435.697L648.345 445.637L649.116 502.485C630.056 507.531 610.477 510.355 590.768 510.9C589.74 510.927 588.73 510.945 587.755 510.963C587.41 510.971 587.073 510.98 586.736 510.98C585.628 510.989 584.529 510.998 583.422 510.998C562.653 511.013 541.959 508.503 521.795 503.523C522.229 489.22 522.664 464.099 523.08 445.637C523.169 442.028 523.248 438.667 523.337 435.697C523.505 429.348 523.683 424.772 523.851 423.238C523.702 423.51 523.586 423.799 523.505 424.098C522.685 427.922 522.125 431.797 521.831 435.697C521.52 438.667 521.21 442.028 520.9 445.637C519.252 464.817 517.532 490.896 515.76 501.953C505.21 499.072 494.858 495.508 484.77 491.286C479.452 489.069 474.23 486.678 469.102 484.112C470.076 477.728 471.096 470.572 472.141 463.15C472.957 457.395 473.798 451.48 474.658 445.637C475.987 436.61 521.148 339.131 531.792 335.717L532.057 335.646L532.243 335.726L550.366 330.158L553.016 329.342L554.797 328.792L561.072 324.013L564.484 321.414L567.683 318.976L573.939 314.214L612.675 316.599L620.217 334.769L637.108 340.949L637.4 340.816L637.657 340.71L637.923 340.781C648.563 344.194 657.718 351.143 663.871 360.475C664.704 361.725 665.714 363.375 666.858 365.37C667.832 367.063 668.896 368.997 670.048 371.134C671.687 374.175 673.477 377.607 675.374 381.322C675.79 382.138 676.216 382.971 676.641 383.814C677.43 385.374 678.23 386.968 679.043 388.593C680.93 392.362 682.88 396.299 684.83 400.298C686.522 403.765 688.233 410.895 689.917 419.966C691.308 427.503 692.69 436.388 694.029 445.637C695.783 457.626 693.913 471.982 695.5 483.013C695.597 483.713 695.704 484.396 695.801 485.079Z" fill="#3F3D56"/>
<path d="M582.194 307.692C607.076 307.692 627.246 287.51 627.246 262.614C627.246 237.717 607.076 217.535 582.194 217.535C557.313 217.535 537.143 237.717 537.143 262.614C537.143 287.51 557.313 307.692 582.194 307.692Z" fill="#FFB6B6"/>
<path opacity="0.2" d="M510.15 419.927L517.68 390.849L524.33 415.94L510.15 419.927Z" fill="black"/>
<path d="M710.53 400.981C707.836 438.117 710.627 454.469 695.757 485.088C682.227 491.714 668.134 497.121 653.644 501.244C652.138 501.669 650.628 502.083 649.116 502.485C630.056 507.531 610.477 510.355 590.768 510.9C589.74 510.927 588.73 510.945 587.755 510.962C587.41 510.971 587.073 510.98 586.736 510.98C585.628 510.989 584.529 510.998 583.422 510.998C562.653 511.013 541.959 508.503 521.795 503.523C519.775 503.026 517.763 502.503 515.76 501.953C505.21 499.071 494.859 495.508 484.77 491.286C479.452 489.069 474.23 486.678 469.102 484.112C467.941 483.527 466.78 482.942 465.637 482.339C459.761 471.999 456.42 459.425 456.349 444.316C460.417 418.281 701.544 378.529 710.53 400.981Z" fill="#2F2E41"/>
<path opacity="0.2" d="M710.523 407.341C710.66 405.042 710.814 402.667 710.994 400.194C702.007 377.742 460.881 417.494 456.813 443.528C456.824 445.915 456.926 448.232 457.098 450.493C466.948 424.797 696.022 387.015 710.523 407.341Z" fill="black"/>
<path d="M450.352 402.733L470.145 392.831L453.651 348.271L449.304 325.8C448.74 322.88 447.419 320.16 445.475 317.912C443.53 315.663 441.03 313.964 438.224 312.985C435.417 312.006 432.404 311.781 429.483 312.332C426.563 312.884 423.838 314.193 421.582 316.128C418.238 318.996 416.139 323.051 415.727 327.439C415.315 331.826 416.622 336.202 419.373 339.643L435.508 359.824L450.352 402.733Z" fill="#FFB6B6"/>
<path d="M470.145 384.579L443.755 397.781L463.782 460.57C465.22 465.079 467.798 469.14 471.266 472.358C474.734 475.577 478.974 477.844 483.576 478.94C489.25 480.292 495.206 479.8 500.582 477.537C505.958 475.273 510.473 471.355 513.474 466.351L566.58 375.271C570.343 368.995 571.505 361.495 569.817 354.374C568.128 347.252 563.724 341.074 557.544 337.158C554.221 335.052 550.491 333.669 546.598 333.101C542.706 332.532 538.737 332.79 534.95 333.858C531.164 334.926 527.644 336.779 524.621 339.298C521.598 341.817 519.138 344.944 517.403 348.477L484.989 417.586L470.145 384.579Z" fill="#3F3D56"/>
<path d="M185.666 304.581C213.043 304.581 235.236 282.375 235.236 254.982C235.236 227.589 213.043 205.382 185.666 205.382C158.29 205.382 136.096 227.589 136.096 254.982C136.096 282.375 158.29 304.581 185.666 304.581Z" fill="#A0616A"/>
<path d="M136.692 220.802C140.722 215.367 146.515 211.502 150.946 206.388C153.377 203.582 155.396 200.403 158.129 197.891C163.208 193.224 170.309 191.312 177.201 191.074C184.753 190.88 192.245 192.468 199.07 195.709C205.895 198.95 211.862 203.753 216.487 209.73C220.089 207.617 223.691 205.503 227.293 203.39C228.716 207.138 230.139 210.886 231.562 214.634C232.73 213.618 234.22 213.049 235.767 213.027C237.314 213.005 238.819 213.532 240.015 214.515C241.211 215.497 242.021 216.872 242.3 218.395C242.58 219.917 242.312 221.49 241.544 222.834C242.401 220.184 246.329 219.621 248.494 221.372C250.659 223.123 251.239 226.239 250.886 229.002C250.443 232.033 249.103 234.863 247.04 237.127C244.977 239.39 242.284 240.985 239.308 241.705C234.607 242.753 229.137 241.652 225.375 244.66C222.358 247.072 221.448 251.463 218.37 253.795C214.577 256.668 209.216 255.339 204.501 255.974C196.252 257.085 189.721 265.527 190.712 273.796C189.966 271.187 189.181 268.502 187.487 266.383C185.793 264.263 182.94 262.83 180.342 263.609C176.048 264.897 175.346 270.754 176.386 275.117C179.147 286.689 189.608 305.394 189.608 305.394C176.024 310.755 159.841 305.685 149.361 295.512C138.88 285.338 133.422 270.933 131.044 256.517C129.028 244.293 129.314 230.752 136.692 220.802Z" fill="#2F2E41"/>
<path d="M638.652 287.463C648.083 265.829 642.74 245.92 631.244 235.359V235.35C626.724 225.215 620.715 217.394 613.838 215.558C610.515 213.421 607.289 210.912 603.709 209.635C602.042 209.01 600.265 208.73 598.486 208.81C596.707 208.891 594.963 209.331 593.358 210.105L591.533 209.617C589.982 205.653 588.165 205.573 586.145 208.18C578.364 204.554 571.354 202.931 565.115 202.931C544.768 202.931 532.733 220.169 529.543 241.007L546.549 245.538L552.46 236.112L549.731 246.39L559.116 248.881C573.401 267.494 556.306 310.43 534.639 334.318C539.796 332.891 544.933 331.685 550.05 330.7L568.642 303.424L557.122 328.253C563.103 327.375 570.734 328.218 579.073 329.911C581.882 326.24 583.362 321.345 581.909 316.983C584.285 321.584 585.924 326.53 586.765 331.64C604.365 335.941 628.372 338.149 641.311 339.781C651.764 336.366 651.793 297.803 638.652 287.463Z" fill="#2F2E41"/>
<path d="M644.788 213.872C651.695 229.348 637.757 236.005 624.989 235.817C613.451 235.647 603.646 227.537 603.057 216.006C602.774 210.469 604.701 205.046 608.414 200.931C612.127 196.815 617.322 194.344 622.856 194.061C634.379 193.472 640.083 203.33 644.788 213.872Z" fill="#2F2E41"/>
<path d="M324.334 465.809L312.956 446.819L350.789 418.099L366.519 401.481C368.562 399.322 371.136 397.738 373.984 396.886C376.831 396.034 379.852 395.945 382.745 396.628C385.637 397.31 388.3 398.74 390.467 400.775C392.634 402.81 394.23 405.379 395.094 408.224C396.375 412.44 395.969 416.989 393.961 420.911C391.953 424.833 388.501 427.821 384.334 429.245L359.89 437.595L324.334 465.809Z" fill="#A0616A"/>
<path d="M332.558 465.183L314.843 479.956L310.066 483.937L309.508 484.398C308.276 485.01 307.035 485.613 305.786 486.207C302.046 487.989 298.259 489.683 294.425 491.288C284.336 495.51 273.984 499.074 263.434 501.955C261.432 502.505 259.42 503.028 257.399 503.525C256.167 503.826 254.927 504.128 253.686 504.412C252.906 504.598 252.117 504.775 251.329 504.944C250.372 505.157 249.415 505.369 248.457 505.564C247.456 505.777 246.455 505.981 245.453 506.176C242.759 503.611 240.613 500.524 239.148 497.103C237.682 493.683 236.927 490 236.928 486.278C236.928 486.039 236.928 485.79 236.937 485.542L239.782 412.537L241.04 380.18C241.234 372.863 244.28 365.912 249.528 360.812C254.775 355.712 261.808 352.867 269.124 352.887C269.975 352.887 270.816 352.931 271.649 353.011C272.252 353.791 272.81 354.598 273.351 355.414C274.822 357.595 276.807 361.045 279.147 365.372C280.113 367.154 281.132 369.087 282.204 371.136C282.851 372.368 288.434 389.801 293.867 407.607L291.474 426.202L287.149 459.72L304.891 448.069L317.386 439.857L318.866 442.331L322.721 448.769L330.165 461.183L332.558 465.183Z" fill="#3F3D56"/>
<path d="M322.845 444.318C322.836 445.825 322.801 447.306 322.721 448.769C322.537 452.805 322.069 456.823 321.321 460.793C320.098 467.46 317.916 473.915 314.843 479.956C314.435 480.763 314.001 481.561 313.558 482.341C312.415 482.944 311.254 483.529 310.093 484.114C309.898 484.212 309.703 484.31 309.508 484.398C304.572 486.854 299.544 489.151 294.425 491.288C284.336 495.51 273.984 499.074 263.434 501.956C261.432 502.505 259.42 503.028 257.399 503.525C253.456 504.5 249.474 505.384 245.453 506.176C229.089 509.393 212.45 511.009 195.773 511C194.665 511 193.566 510.991 192.458 510.982C192.122 510.982 191.785 510.974 191.439 510.965C190.464 510.947 189.454 510.929 188.426 510.903C168.718 510.357 149.139 507.534 130.079 502.488C128.563 502.089 127.054 501.675 125.55 501.246C111.061 497.123 96.9678 491.716 83.4378 485.09C68.5673 454.471 71.3588 438.12 68.6648 400.983C74.1947 387.159 167.751 396.922 239.782 412.537C259.331 416.776 277.286 421.449 291.474 426.202C306.132 431.105 316.757 436.089 320.922 440.771C321.896 441.74 322.564 442.973 322.845 444.318Z" fill="#2F2E41"/>
<path opacity="0.2" d="M68.6698 407.341C68.5322 405.042 68.3784 402.667 68.199 400.194C77.1851 377.742 318.312 417.494 322.38 443.528C322.368 445.915 322.266 448.232 322.095 450.493C312.244 424.797 83.1705 387.015 68.6698 407.341Z" fill="black"/>
</g>
<defs>
<linearGradient id="paint0_linear_128_1425" x1="257" y1="280" x2="507" y2="280" gradientUnits="userSpaceOnUse">
<stop stop-color="#64E8DE"/>
<stop offset="1" stop-color="#3E74FF"/>
</linearGradient>
<clipPath id="clip0_128_1425">
<rect width="780" height="511" fill="white"/>
</clipPath>
</defs>
</svg>
